HIERARCHY
ROOT Hips
{
  OFFSET 155.048 98.1286 3.93448
  CHANNELS 6 Xposition Yposition Zposition Zrotation Xrotation Yrotation
  JOINT RightUpLeg
  {
    OFFSET -8.9458 -8.66707 0.101652
    CHANNELS 3 Zrotation Xrotation Yrotation
    JOINT RightLeg
    {
      OFFSET 0 -44.4227 1.3727
      CHANNELS 3 Zrotation Xrotation Yrotation
      JOINT RightFoot
      {
        OFFSET 0.253549 -42.0924 -1.46059
        CHANNELS 3 Zrotation Xrotation Yrotation
        JOINT RightToes
        {
          OFFSET 0.04 -4.41509 8.4991
          CHANNELS 3 Zrotation Xrotation Yrotation
          End Site
          {
            OFFSET -0.08 -0.137448 9.77979
          }
        }
      }
    }
  }
  JOINT Spine
  {
    OFFSET 0 11.8905 0
    CHANNELS 3 Zrotation Xrotation Yrotation
    JOINT Spine1
    {
      OFFSET 0 25.6574 0.127663
      CHANNELS 3 Zrotation Xrotation Yrotation
      JOINT Head
      {
        OFFSET 0 8.73416 0.011341
        CHANNELS 3 Zrotation Xrotation Yrotation
        End Site
        {
          OFFSET -0.29 12.7742 2.51395
        }
      }
      JOINT LeftShoulder1
      {
        OFFSET 8.99 -0.362252 -0.22
        CHANNELS 3 Zrotation Xrotation Yrotation
        JOINT LeftArm
        {
          OFFSET 10.2827 -0.00337999 0.322123
          CHANNELS 3 Zrotation Xrotation Yrotation
          JOINT LeftForeArm
          {
            OFFSET 26.2597 0.099144 -1.42434
            CHANNELS 3 Zrotation Xrotation Yrotation
            JOINT LeftHand
            {
              OFFSET 22.0902 0.085362 1.02216
              CHANNELS 3 Zrotation Xrotation Yrotation
              End Site
              {
                OFFSET 13.419 -0.6 1.50291
              }
            }
          }
        }
      }
      JOINT RightShoulder
      {
        OFFSET -8.99 -0.362252 -0.22
        CHANNELS 3 Zrotation Xrotation Yrotation
        JOINT RightArm
        {
          OFFSET -10.2827 -0.00338 0.322123
          CHANNELS 3 Zrotation Xrotation Yrotation
          JOINT RightForeArm
          {
            OFFSET -26.364 0.099144 -1.42434
            CHANNELS 3 Zrotation Xrotation Yrotation
            JOINT RightHand
            {
              OFFSET -22.0324 0.085362 1.02216
              CHANNELS 3 Zrotation Xrotation Yrotation
              End Site
              {
                OFFSET -13.3284 -0.6 1.50291
              }
            }
          }
        }
      }
    }
  }
  JOINT LeftUpLeg
  {
    OFFSET 8.9458 -8.66707 0.101652
    CHANNELS 3 Zrotation Xrotation Yrotation
    JOINT LeftLeg
    {
      OFFSET 0 -44.4227 1.3727
      CHANNELS 3 Zrotation Xrotation Yrotation
      JOINT LeftFoot
      {
        OFFSET -0.253549 -42.0924 -1.46059
        CHANNELS 3 Zrotation Xrotation Yrotation
        JOINT LeftToes
        {
          OFFSET -0.04 -4.41509 8.4991
          CHANNELS 3 Zrotation Xrotation Yrotation
          End Site
          {
            OFFSET 0.08 -0.047448 9.77979
          }
        }
      }
    }
  }
}
MOTION
Frames:	21
Frame Time:	0.0333333
195.167 99.4097 8.4228 -1.86358 0.725945 -95.4263 0.797974 -5.06647 -3.94865 -2.052 15.3008 -4.84566 2.49495 -8.02234 -0.156493 0.0462048 0.000530889 0.662642 4.62005 -10.7388 0.288287 -2.29359 25.3242 0.704712 3.441 -5.19731 -7.15883 -38.4803 8.79013 -16.0226 -45.002 -38.2444 -13.8166 -15.975 31.3689 -0.728975 22.4934 8.75872 -0.602544 49.4816 13.0457 18.9175 20.1523 -45.5291 -6.52781 6.01946 27.3786 9.83993 -6.64901 9.4696 3.09378 -1.4132 -3.76256 1.32909 2.27655 16.7562 14.6245 -1.54358 -10.0444 0.0149232 -1.33194e-009 8.75224e-006 -1.47011e-008 
195.114 99.4097 8.44316 -1.79622 0.721771 -95.4222 0.783466 -5.11356 -3.94918 -2.05064 15.3128 -4.84403 2.49321 -8.04848 -0.156503 0.0462048 0.000530889 0.662642 4.59742 -10.8176 0.243345 -2.36274 25.3753 0.68775 3.53447 -5.31372 -6.92535 -38.4762 8.78161 -16.0058 -44.9199 -37.6177 -13.8539 -15.6699 30.7821 -1.44372 22.1596 8.76815 -0.648089 49.4472 13.0377 18.9191 20.3987 -45.266 -6.28293 5.90194 26.9881 10.3754 -6.75801 9.47031 3.01127 -1.41309 -3.79746 1.36482 2.25359 16.7399 14.5889 -1.52499 -10.0795 0.0149248 -1.33194e-009 8.75224e-006 -1.47011e-008 
195.003 99.4107 8.48478 -1.77531 0.731034 -95.4669 0.754765 -5.059 -3.98572 -2.04435 15.2876 -4.76041 2.49394 -8.07649 -0.156514 0.0462048 0.000530889 0.662642 4.59978 -10.9557 0.209643 -2.49852 25.6213 0.70667 3.62425 -5.5744 -6.80972 -38.4128 8.74361 -15.951 -44.8513 -36.2306 -14.1001 -15.2361 29.3854 -2.61925 21.7689 8.78081 -0.693868 49.4032 13.0372 18.9378 20.7339 -44.8291 -5.79962 5.68828 26.3007 11.2806 -6.79221 9.47055 2.98343 -1.41595 -3.70077 1.47265 2.23183 16.642 14.5676 -1.55047 -10.1524 0.0149282 -1.33194e-009 8.75224e-006 -1.47011e-008 
194.892 99.4155 8.53174 -1.77345 0.767178 -95.5568 0.743095 -4.9746 -4.01768 -2.02704 15.2443 -4.63462 2.52303 -8.08647 -0.156518 0.0462048 0.000530889 0.662642 4.7152 -11.225 0.243357 -2.73194 26.1351 0.817499 3.51371 -5.69624 -6.92595 -38.2984 8.70956 -15.9276 -44.7386 -34.2957 -14.506 -14.9654 27.3467 -3.71775 21.7218 8.79008 -0.657024 49.3631 13.0405 18.9613 21.0454 -44.549 -5.15584 5.47353 25.7005 12.0528 -6.67903 9.47032 3.06003 -1.39358 -3.58122 1.61738 2.2069 16.5544 14.56 -1.59008 -10.2283 0.0149317 -1.33194e-009 8.75224e-006 -1.47011e-008 
194.817 99.4217 8.57513 -1.65292 0.808754 -95.6508 0.760881 -5.05069 -3.97917 -2.00797 15.2213 -4.56894 2.56195 -8.07351 -0.156513 0.0462048 0.000530889 0.662642 4.8741 -11.5579 0.321707 -2.97274 26.5692 0.963614 3.34441 -5.5872 -6.88063 -38.2401 8.72065 -15.9784 -44.3524 -31.9074 -14.6648 -14.7702 24.8093 -4.87825 21.8397 8.80524 -0.538852 49.2976 13.0246 18.9633 21.3712 -44.6032 -4.50984 5.27862 25.4105 12.5179 -6.694 9.46742 3.10371 -1.33933 -3.6599 1.73573 2.16536 16.5717 14.5369 -1.55178 -10.277 0.014934 -1.33194e-009 8.75224e-006 -1.47011e-008 
194.753 99.4251 8.61665 -1.42958 0.832222 -95.7517 0.787232 -5.25974 -3.88569 -1.99998 15.2087 -4.5595 2.56295 -8.03557 -0.156498 0.0462048 0.000530889 0.662642 4.92309 -11.2643 0.385571 -3.02022 25.7908 1.0249 3.37202 -5.2078 -6.5715 -38.5717 8.86156 -16.1358 -43.142 -28.9066 -13.7918 -14.4406 21.6672 -6.50083 21.7945 8.81902 -0.476267 49.4593 13.1027 19.0242 20.9833 -44.617 -4.72019 5.16157 25.1137 12.8541 -6.95062 9.45503 2.98191 -1.29546 -3.87975 1.80726 2.12556 16.6344 14.5366 -1.45533 -10.3083 0.0149355 -1.33194e-009 8.75224e-006 -1.47011e-008 
194.669 99.4262 8.66024 -1.24762 0.843723 -95.9133 0.798045 -5.42276 -3.80523 -1.99944 15.1934 -4.488 2.5134 -7.99177 -0.156481 0.0462048 0.000530889 0.662642 4.93623 -9.81798 0.402872 -3.00637 23.1821 1.0221 3.6269 -4.50865 -6.39685 -39.4405 9.16006 -16.3916 -41.083 -25.5084 -11.7558 -14.1249 18.2039 -8.37033 21.697 8.82033 -0.496951 50.247 13.4581 19.2798 19.0165 -44.0591 -6.46822 5.22957 24.4025 13.2383 -7.10695 9.4499 2.83191 -1.28916 -4.00925 1.86366 2.10861 16.6339 14.6245 -1.41307 -10.3494 0.0149375 -1.33194e-009 8.75224e-006 -1.47011e-008 
194.57 99.4253 8.70525 -1.14375 0.853795 -96.1521 0.788827 -5.50974 -3.75464 -1.99843 15.2073 -4.29341 2.44587 -7.97909 -0.156476 0.0462048 0.000530889 0.662642 5.13473 -10.012 0.51288 -3.34438 23.4317 1.23131 3.99853 -5.06314 -6.49692 -39.2031 9.08102 -16.3283 -41.5604 -25.2805 -12.2373 -14.0565 18.1458 -8.47734 21.8433 8.82922 -0.406906 50.3035 13.5071 19.3369 18.9753 -44.0518 -6.04323 5.26571 24.2518 13.255 -6.95321 9.44542 2.93069 -1.30451 -4.01357 1.92426 2.10225 16.5819 14.7923 -1.4366 -10.3971 0.0149397 -1.33194e-009 8.75224e-006 -1.47011e-008 
194.472 99.4213 8.75251 -1.04538 0.86176 -96.3934 0.769305 -5.60617 -3.71094 -1.9979 15.2631 -4.06508 2.39941 -8.00334 -0.156486 0.0462048 0.000530889 0.662642 5.27688 -10.1612 0.672218 -3.56818 23.6473 1.45968 4.1998 -5.38744 -6.5515 -39.078 9.03944 -16.2952 -41.9788 -25.4392 -12.7233 -14.1358 18.3344 -8.27488 22.1251 8.87792 -0.0637729 50.2792 13.4871 19.3139 19.0827 -44.0298 -5.66079 5.28616 24.1541 13.2803 -6.78842 9.4415 3.15143 -1.32343 -4.03446 1.95056 2.08932 16.5786 14.9809 -1.4128 -10.4363 0.0149416 -1.33194e-009 8.75224e-006 -1.47011e-008 
194.377 99.4129 8.80794 -0.944873 0.888904 -96.5302 0.760011 -5.68536 -3.69844 -1.98683 15.3002 -3.92811 2.38647 -8.0287 -0.156495 0.0462048 0.000530889 0.662642 5.21991 -10.2185 0.815434 -3.39886 23.663 1.54754 4.15275 -5.28771 -6.37754 -39.1985 9.08324 -16.3351 -42.0314 -25.4875 -12.8675 -14.1934 18.2719 -8.19415 22.2011 8.91155 0.137598 50.0934 13.3867 19.2271 19.3767 -44.159 -5.37536 5.29132 24.0276 13.2863 -6.97285 9.44284 3.06161 -1.33431 -4.11836 1.89264 2.08379 16.6836 15.1515 -1.30143 -10.4889 0.0149441 -1.33194e-009 8.75224e-006 -1.47011e-008 
194.291 99.4003 8.87119 -0.895485 0.961266 -96.5547 0.772117 -5.67328 -3.75662 -1.94148 15.2799 -3.87237 2.38737 -8.0449 -0.156502 0.0462048 0.000530889 0.662642 5.0685 -10.0848 0.895432 -2.98525 23.4058 1.49223 3.87519 -4.90446 -6.41361 -39.4907 9.19666 -16.4464 -41.7945 -25.7293 -12.694 -14.2497 18.6195 -8.00901 22.1198 8.86331 -0.144519 49.9402 13.3261 19.1927 19.4286 -44.256 -5.37679 5.36401 23.7562 13.237 -7.2583 9.45081 2.64978 -1.31717 -4.20066 1.77411 2.09346 16.8731 15.2966 -1.20723 -10.5851 0.0149488 -1.33194e-009 8.75224e-006 -1.47011e-008 
194.226 99.3852 8.92859 -0.876069 1.04293 -96.5735 0.781201 -5.64415 -3.84371 -1.87472 15.2734 -3.78558 2.38506 -8.08743 -0.156518 0.0462048 0.000530889 0.662642 5.04463 -9.99325 0.94568 -2.80119 23.2673 1.48121 3.5384 -4.57074 -6.87284 -39.6622 9.28258 -16.5521 -41.7012 -26.5598 -12.6379 -14.425 19.9739 -7.33725 22.2083 8.7763 -0.589525 49.9582 13.3577 19.2384 19.2352 -44.2018 -5.47391 5.46587 23.6093 13.1305 -7.19882 9.46338 2.48923 -1.27855 -4.26887 1.68134 2.08897 17.072 15.4236 -1.20564 -10.7028 0.0149546 -1.33194e-009 8.75224e-006 -1.47011e-008 
194.162 99.3695 8.97097 -0.84721 1.07167 -96.6576 0.757435 -5.68136 -3.88067 -1.84444 15.3594 -3.64161 2.3987 -8.16622 -0.156549 0.0462048 0.000530889 0.662642 5.1379 -10.1386 1.01194 -2.95474 23.4649 1.59945 3.30641 -4.35715 -7.29268 -39.5799 9.27194 -16.5666 -41.9456 -27.7147 -12.8331 -14.6784 21.6846 -6.42912 22.4644 8.7408 -0.706486 50.0274 13.3927 19.2669 19.2369 -44.1956 -5.40048 5.46542 23.8924 13.0071 -6.90306 9.46473 2.85696 -1.27498 -4.31652 1.63791 2.06335 17.2078 15.5718 -1.23598 -10.7989 0.0149593 -1.33194e-009 8.75224e-006 -1.47011e-008 
194.064 99.3541 9.01026 -0.864548 1.07029 -96.7336 0.729515 -5.67312 -3.85631 -1.87564 15.4891 -3.56271 2.45095 -8.24986 -0.156582 0.0462048 0.000530889 0.662642 5.20946 -10.3829 1.06171 -3.15408 23.7861 1.72017 3.17926 -4.13725 -7.33762 -39.361 9.18468 -16.4793 -42.3941 -29.0178 -13.0543 -14.8612 23.0919 -5.66536 22.5621 8.75463 -0.604641 50.0137 13.3744 19.2419 19.5352 -44.4014 -5.23619 5.37977 24.3995 12.8662 -6.80836 9.45202 3.24104 -1.33076 -4.26541 1.55847 2.06463 17.2839 15.7629 -1.22624 -10.8839 0.0149636 -1.33194e-009 8.75224e-006 -1.47011e-008 
193.938 99.3379 9.06045 -0.962482 1.11742 -96.7041 0.755235 -5.5136 -3.80658 -1.92641 15.5573 -3.63636 2.52248 -8.33549 -0.156616 0.0462048 0.000530889 0.662642 5.28946 -10.5409 1.0311 -3.30054 24.0048 1.73547 3.16281 -3.98878 -7.27314 -39.1275 9.07922 -16.3585 -42.8659 -30.679 -13.1538 -14.9824 24.4631 -4.94637 22.4196 8.75617 -0.637321 50.0209 13.3818 19.2512 19.7236 -44.6114 -5.23403 5.37287 24.7149 12.6595 -6.94342 9.44649 3.15544 -1.37705 -4.11851 1.41637 2.11082 17.3749 15.9003 -1.20155 -10.997 0.0149693 -1.33194e-009 8.75224e-006 -1.47011e-008 
193.83 99.3222 9.11154 -1.04109 1.20239 -96.616 0.824363 -5.3393 -3.73658 -1.96157 15.5562 -3.77693 2.58633 -8.43317 -0.156655 0.0462048 0.000530889 0.662642 5.41303 -10.6732 0.963286 -3.48161 24.1582 1.7138 3.36018 -4.14939 -7.29663 -38.951 9.01539 -16.3006 -43.1714 -32.4285 -13.1281 -15.1282 25.8714 -4.17056 22.2535 8.74551 -0.742425 50.1368 13.4526 19.3195 19.644 -44.6397 -5.3752 5.49387 24.8619 12.3589 -7.02634 9.4568 2.83777 -1.35478 -4.02311 1.33146 2.14295 17.5023 15.8792 -1.20536 -11.1254 0.0149759 -1.33194e-009 8.75224e-006 -1.47011e-008 
193.764 99.3125 9.1491 -1.03711 1.25714 -96.5787 0.878706 -5.28124 -3.6524 -1.9933 15.5378 -3.86753 2.64991 -8.48733 -0.156677 0.0462048 0.000530889 0.662642 5.41863 -10.83 0.966494 -3.53504 24.2941 1.72702 3.69417 -4.52544 -7.16526 -38.9295 9.03069 -16.3433 -43.1718 -33.6483 -12.9684 -15.2889 26.8954 -3.53189 22.2147 8.75001 -0.729711 50.194 13.4786 19.3379 19.6383 -44.7362 -5.42794 5.62355 25.167 11.9505 -6.99057 9.46565 2.72991 -1.31081 -4.02684 1.35347 2.13402 17.5943 15.8 -1.21426 -11.2176 0.0149806 -1.33194e-009 8.75224e-006 -1.47011e-008 
193.713 99.3119 9.18842 -1.05848 1.30928 -96.5578 0.92355 -5.19011 -3.6177 -2.02293 15.4763 -3.92874 2.71393 -8.45495 -0.156664 0.0462048 0.000530889 0.662642 5.225 -10.7393 1.02938 -3.23575 24.1525 1.69806 3.84275 -4.62314 -6.83604 -39.1083 9.10973 -16.4329 -42.9538 -34.4541 -12.6794 -15.4904 27.7509 -2.94878 22.3073 8.74649 -0.721356 50.08 13.4039 19.2623 19.7765 -45.115 -5.48741 5.68983 25.6673 11.4532 -6.95784 9.46763 2.8389 -1.29939 -3.98378 1.32896 2.15289 17.627 15.8275 -1.19727 -11.2691 0.0149833 -1.33194e-009 8.75224e-006 -1.47011e-008 
193.651 99.3132 9.25267 -1.17643 1.4228 -96.4407 0.985855 -4.92522 -3.67696 -2.01203 15.3242 -4.01671 2.7611 -8.43111 -0.156654 0.0462048 0.000530889 0.662642 5.04848 -10.3139 1.04035 -2.83788 23.6644 1.58231 3.69718 -4.27071 -6.66724 -39.3053 9.17577 -16.4856 -42.8502 -35.6012 -12.4561 -15.8498 29.2245 -1.9723 22.4989 8.72096 -0.801618 49.9854 13.3449 19.2044 19.7005 -45.4764 -5.82068 5.74446 26.1574 10.9702 -6.90065 9.46707 2.98438 -1.28707 -3.83512 1.19073 2.23001 17.6705 15.8567 -1.17729 -11.326 0.0149863 -1.33194e-009 8.75224e-006 -1.47011e-008 
193.59 99.3083 9.32734 -1.26067 1.49623 -96.2913 0.965246 -4.69597 -3.79953 -1.9481 15.1784 -4.04169 2.83522 -8.52553 -0.155647 0.0462048 0.000530889 0.662642 4.9823 -9.94868 1.00775 -2.71076 23.2069 1.50423 3.53271 -3.89781 -6.72596 -39.3367 9.18238 -16.4855 -42.9875 -37.1122 -12.4368 -16.305 31.0722 -0.713593 22.6365 8.72393 -0.74576 50.0574 13.3768 19.2265 19.3671 -45.4543 -6.34387 5.82432 26.5675 10.6475 -6.76115 9.46481 3.13257 -1.27676 -3.72444 1.15476 2.26804 17.7043 15.688 -1.17246 -11.4013 0.0149902 -1.33194e-009 8.75224e-006 -1.47011e-008 
193.552 99.2994 9.3829 -1.18196 1.35848 -96.2909 0.719821 -4.78864 -3.95574 -1.88238 15.223 -3.88308 3.01602 -8.69669 -0.151042 0.0462048 0.000530889 0.662642 4.74948 -9.91547 1.06146 -2.67676 23.0267 1.56414 3.48445 -3.84425 -6.61517 -39.3229 9.17774 -16.4818 -43.0745 -38.1896 -12.4358 -16.5175 32.0359 -0.00829626 22.5408 8.77601 -0.497098 50.1277 13.3963 19.2281 19.1854 -45.2162 -6.69627 5.90615 26.8905 10.4729 -6.71277 9.46213 3.17864 -1.39896 -3.74309 1.3305 2.19793 17.582 15.5116 -1.15931 -11.4607 0.0149934 -1.33194e-009 8.75224e-006 -1.47011e-008 
